<svg xmlns="http://www.w3.org/2000/svg" width="1600" height="640" viewBox="0 0 1600 640">
    <defs>
      <linearGradient id="bg" x1="0" y1="0" x2="1" y2="1">
        <stop offset="0" stop-color="#FBF4E0"/>
        <stop offset="1" stop-color="#EFD9A1"/>
      </linearGradient>
    </defs>
    <rect width="1600" height="640" fill="url(#bg)"/>
    <!-- Artwork only: titles/subtitles are rendered by the UI as an overlay, so they are
         intentionally NOT baked into the image (avoids duplicated text). -->
    <g opacity="0.95" transform="translate(1140,300) scale(1.05)">
    <g transform="translate(400,420)">
      <polygon points="-150,-70 150,-70 230,0 0,250 -230,0" fill="#C8A04B" stroke="#B8860B" stroke-width="8"/>
      <polygon points="-150,-70 150,-70 0,0" fill="#ffffff" opacity="0.5"/>
      <polygon points="-150,-70 0,0 -230,0" fill="#ffffff" opacity="0.25"/>
      <line x1="0" y1="0" x2="0" y2="250" stroke="#B8860B" stroke-width="4" opacity="0.6"/>
    </g></g>
    <g opacity="0.9" transform="translate(1390,360) scale(0.7)">
    <circle cx="400" cy="470" r="150" fill="none" stroke="#B8860B" stroke-width="34"/>
    <g transform="translate(400,250)">
      <polygon points="0,-60 52,-18 0,60 -52,-18" fill="#C8A04B" stroke="#B8860B" stroke-width="6"/>
      <polygon points="0,-60 52,-18 0,0 -52,-18" fill="#ffffff" opacity="0.45"/>
    </g></g>
  </svg>